<?xml version="1.0" encoding="utf-8"?>
<!-- Generator: Adobe Illustrator 16.0.0, SVG Export Plug-In . SVG Version: 6.00 Build 0)  -->
<!DOCTYPE svg PUBLIC "-//W3C//DTD SVG 1.1//EN" "http://www.w3.org/Graphics/SVG/1.1/DTD/svg11.dtd">
<svg version="1.1" id="Layer_1" xmlns="http://www.w3.org/2000/svg" xmlns:xlink="http://www.w3.org/1999/xlink" x="0px" y="0px"
	width="803.439px" height="222.314px" viewBox="0 0 803.439 222.314" enable-background="new 0 0 803.439 222.314"
	xml:space="preserve">
<g>
	<path fill="#000000" d="M182.61,61.314c8.958,8.958,16.3,18.911,5.737,29.47c-5.729,5.735-15.889,7.652-23.13,0.408l-11.262,11.265
		l10.961,10.96l9.855-8.86c9.759,2.517,18.208-0.898,25.045-7.731c12.878-12.881,12.57-28.475-4.122-45.167
		c-19.413-19.411-37.417-17.505-49.589-5.338c-6.438,6.44-8.045,13.889-7.248,18.512l-21.419-21.422l5.336-5.333
		c1.004-1.007,1.004-2.006,0-3.01l-5.333-5.33c-1.11-1.111-1.908-1.111-3.014-0.009L99.338,44.82c-1.005,1.004-1.111,1.908,0,3.022
		l36.912,36.909l11.266-11.262c0,0-1.708-9.162,5.729-16.598C160.29,49.846,169.942,48.643,182.61,61.314z"/>
	<path fill="#000000" d="M32.409,26.296c8.957-8.958,18.911-16.299,29.473-5.737c5.731,5.731,7.649,15.889,0.408,23.13
		l11.265,11.266l10.958-10.961l-8.854-9.859c2.515-9.758-0.901-18.208-7.737-25.044C55.04-3.789,39.449-3.479,22.754,13.211
		c-19.41,19.411-17.502,37.42-5.333,49.59c6.438,6.438,13.886,8.048,18.51,7.247L14.508,91.473l-5.335-5.338
		c-1.005-1.005-2.003-1.005-3.008,0l-5.333,5.33c-1.11,1.111-1.107,1.912-0.003,3.016l15.085,15.085
		c1.008,1.007,1.912,1.114,3.022,0L55.85,72.657L44.587,61.392c0,0-9.161,1.71-16.598-5.729
		C20.94,48.617,19.74,38.965,32.409,26.296z"/>
	<path fill="#000000" d="M60.08,167.617c-7.439,7.436-16.601,5.729-16.601,5.729l-11.26,11.262l36.909,36.912
		c1.111,1.111,2.016,1.005,3.022,0l15.088-15.088c1.105-1.105,1.105-1.905-0.006-3.017l-5.332-5.327
		c-1.005-1.007-2.004-1.007-3.008,0l-5.336,5.336l-21.422-21.425c4.626,0.804,12.071-0.807,18.512-7.247
		c12.169-12.172,14.072-30.177-5.335-49.587c-16.692-16.692-32.289-17-45.167-4.121c-6.834,6.833-10.249,15.286-7.735,25.041
		l-8.856,9.858l10.96,10.961l11.263-11.262c-7.241-7.241-5.324-17.401,0.407-23.133c10.563-10.563,20.516-3.217,29.474,5.74
		C68.325,150.918,67.123,160.57,60.08,167.617z"/>
	<path fill="#000000" d="M145.32,152.518c7.442,7.436,5.731,16.6,5.731,16.6l11.262,11.26l36.913-36.912
		c1.107-1.108,1.004-2.012,0-3.02l-15.089-15.088c-1.102-1.105-1.905-1.105-3.017,0.006l-5.326,5.33
		c-1.005,1.007-1.008,2.002,0,3.01l5.333,5.336l-21.423,21.422c0.804-4.626-0.807-12.071-7.247-18.512
		c-12.169-12.17-30.176-14.075-49.59,5.336c-16.689,16.691-16.999,32.285-4.118,45.166c6.833,6.834,15.286,10.249,25.044,7.734
		l9.856,8.857l10.961-10.961l-11.263-11.262c-7.241,7.238-17.401,5.321-23.133-0.408c-10.559-10.562-3.22-20.518,5.737-29.476
		C128.625,144.271,138.273,145.471,145.32,152.518z"/>
</g>
<g>
	<path fill="#000000" d="M274.139,137.732c0-1.452,0.726-2.179,2.178-2.179h7.552V60.041h-7.552c-1.452,0-2.178-0.726-2.178-2.178
		v-7.261c0-1.452,0.581-2.178,2.178-2.178c9.294-0.436,21.929-0.871,30.351-0.871c24.978,0,38.628,9.148,38.628,28.317
		c0,19.459-13.359,31.803-35.143,31.803c-3.485,0-7.551-0.146-10.02-0.436v28.316h12.053c1.452,0,2.179,0.727,2.179,2.179v7.116
		c0,1.597-0.727,2.178-2.179,2.178h-35.869c-1.452,0-2.178-0.581-2.178-2.178V137.732z M300.133,96.055
		c1.307,0.146,3.05,0.146,6.68,0.146c12.634,0,21.783-4.647,21.783-19.314s-11.473-17.281-23.235-17.281h-5.228V96.055z"/>
	<path fill="#000000" d="M392.198,98.814c0-6.97-1.162-14.086-12.634-14.086c-9.149,0-11.908,4.066-13.07,9.294
		c-0.29,1.307-0.871,2.178-2.178,2.178h-9.294c-1.452,0-2.179-0.726-2.033-2.178c0.871-15.103,13.941-20.476,28.898-20.476
		c20.767,0,25.994,11.037,25.994,23.816v38.192h6.244c1.452,0,2.179,0.727,2.179,2.179v7.116c0,1.597-0.727,2.178-2.179,2.178
		H396.99c-1.452,0-2.033-0.727-2.178-2.178l-1.017-6.681c-5.229,7.116-12.344,10.601-22.654,10.601
		c-11.037,0-21.492-5.082-21.492-20.475c0-23.526,26.284-24.107,42.549-24.397V98.814z M392.488,113.917
		c-11.763,0.145-27.446,0.145-27.446,12.924c0,6.826,3.776,10.021,11.473,10.021c10.746,0,15.974-6.245,15.974-11.763V113.917z"/>
	<path fill="#000000" d="M424.288,77.322c0-1.452,0.58-2.178,2.178-2.178h19.75c1.452,0,2.033,0.726,2.323,2.178l1.307,8.423
		c5.954-9.004,14.667-12.199,23.235-12.199c14.667,0,22.509,8.278,22.509,24.688v37.32h8.423c1.452,0,2.178,0.727,2.178,2.179v7.116
		c0,1.597-0.726,2.178-2.178,2.178h-31.658c-1.452,0-2.178-0.727-2.178-2.178v-7.116c0-1.597,0.726-2.179,2.178-2.179h6.971v-30.06
		c0-10.311-1.017-17.571-12.488-17.571c-9.149,0-16.265,7.116-16.265,14.231v33.4h9.003c1.598,0,2.179,0.727,2.179,2.179v7.116
		c0,1.597-0.727,2.178-2.179,2.178h-32.964c-1.452,0-2.179-0.727-2.179-2.178v-7.116c0-1.597,0.727-2.179,2.179-2.179h7.696V87.051
		h-7.842c-1.598,0-2.178-0.436-2.178-2.033V77.322z"/>
	<path fill="#000000" d="M586.492,135.554c1.452,0,2.179,0.727,2.179,2.179v7.116c0,1.597-0.727,2.178-2.179,2.178h-16.409
		c-1.452,0-2.033-0.727-2.179-2.178l-1.161-8.568c-5.229,8.858-13.796,12.488-23.671,12.488c-18.588,0-29.624-11.472-29.624-35.578
		c0-28.027,14.376-39.645,31.947-39.645c9.294,0,15.829,4.211,18.588,8.132V50.747h-7.696c-1.452,0-2.179-0.726-2.179-2.178v-7.697
		c0-1.597,0.581-2.178,2.179-2.178h21.782c1.453,0,2.179,0.581,2.179,2.178v94.682H586.492z M563.983,94.167
		c0,0-5.373-7.842-16.119-7.842c-10.165,0-18.007,6.099-18.007,24.396c0,12.925,1.888,25.414,17.136,25.414
		c8.277,0,16.99-5.955,16.99-16.41V94.167z"/>
	<path fill="#000000" d="M632.523,73.546c11.327,0,32.674,3.485,32.674,35.578c0,27.156-15.683,39.645-34.997,39.645
		c-19.75,0-32.093-11.907-32.093-36.595C598.107,81.533,618.583,73.546,632.523,73.546z M648.207,111.157
		c0-16.264-4.502-25.703-16.99-25.703c-12.053,0-16.7,9.439-16.7,23.525c0,12.924,2.469,27.882,16.99,27.882
		C643.415,136.861,648.207,127.857,648.207,111.157z"/>
	<path fill="#000000" d="M729.382,74.708c1.598,0.581,1.743,1.162,1.743,2.614v19.604c0,1.597-0.727,2.178-2.179,2.178h-9.439
		c-1.452,0-2.178-0.581-2.032-2.178l0.58-8.423c-0.726-0.145-1.742-0.145-2.469-0.145c-8.713,0-15.393,7.551-15.393,20.04v27.155
		h15.974c1.452,0,2.179,0.727,2.179,2.179v7.116c0,1.597-0.727,2.178-2.179,2.178h-39.935c-1.452,0-2.179-0.727-2.179-2.178v-7.116
		c0-1.597,0.727-2.179,2.179-2.179h7.696V87.051h-7.842c-1.452,0-2.178-0.726-2.178-2.178v-7.551c0-1.597,0.58-2.178,2.178-2.178
		h19.169c1.452,0,2.178,0.726,2.469,2.178l1.598,10.311c2.904-6.971,10.311-14.086,20.766-14.086
		C723.283,73.546,728.075,74.272,729.382,74.708z"/>
	<path fill="#000000" d="M779.334,98.814c0-6.97-1.162-14.086-12.635-14.086c-9.148,0-11.907,4.066-13.069,9.294
		c-0.29,1.307-0.871,2.178-2.178,2.178h-9.294c-1.452,0-2.179-0.726-2.033-2.178c0.871-15.103,13.94-20.476,28.898-20.476
		c20.766,0,25.994,11.037,25.994,23.816v38.192h6.244c1.452,0,2.178,0.727,2.178,2.179v7.116c0,1.597-0.726,2.178-2.178,2.178
		h-17.136c-1.452,0-2.033-0.727-2.179-2.178l-1.017-6.681c-5.228,7.116-12.343,10.601-22.653,10.601
		c-11.037,0-21.492-5.082-21.492-20.475c0-23.526,26.284-24.107,42.549-24.397V98.814z M779.624,113.917
		c-11.763,0.145-27.446,0.145-27.446,12.924c0,6.826,3.775,10.021,11.473,10.021c10.746,0,15.974-6.245,15.974-11.763V113.917z"/>
</g>
</svg>